<svg width="92" height="41" viewBox="0 0 92 41" fill="none" xmlns="http://www.w3.org/2000/svg">
<path d="M79 0L81.8022 5.60436C82.5972 7.19436 83.1766 8.88325 83.5253 10.6264L84 13L84.1042 13.9381C84.365 16.2847 84.1133 18.66 83.3667 20.8999V20.8999C83.1225 21.6324 82.8267 22.3466 82.4814 23.0372L81 26L79.0268 29.0694C77.3647 31.655 75.1289 33.8227 72.4932 35.4041L71.5 36L65 40.5H86L86.6152 39.6798C88.1947 37.5737 89.4244 35.2268 90.2569 32.7293V32.7293C90.4187 32.2438 90.5423 31.7465 90.6264 31.2417L90.8555 29.8668C91.2844 27.2933 91.5 24.6888 91.5 22.0798V22.0798C91.5 20.6974 91.3487 19.3192 91.0488 17.9697L90.5 15.5L89.9202 13.7607C89.31 11.9299 88.4379 10.197 87.3312 8.61601L85.5 6L85.2992 5.76569C83.4399 3.59654 81.3248 1.66056 79 0V0Z" fill="#D9D9D9"/>
<path d="M13 0L10.1978 5.60436C9.40282 7.19436 8.82335 8.88325 8.47473 10.6264L8.00002 13L7.89578 13.9381C7.63504 16.2847 7.88667 18.66 8.6333 20.8999V20.8999C8.87746 21.6324 9.1733 22.3466 9.51859 23.0372L11 26L12.9732 29.0694C14.6353 31.655 16.8711 33.8227 19.5068 35.4041L20.5 36L27 40.5H6L5.38482 39.6798C3.80527 37.5737 2.57558 35.2268 1.74309 32.7293V32.7293C1.58128 32.2438 1.45775 31.7465 1.37362 31.2417L1.14447 29.8668C0.715558 27.2933 0.5 24.6888 0.5 22.0798V22.0798C0.5 20.6974 0.651293 19.3192 0.951176 17.9697L1.5 15.5L2.07977 13.7607C2.69004 11.9299 3.56209 10.197 4.66879 8.61601L6.5 6L6.70084 5.76569C8.5601 3.59654 10.6752 1.66056 13 0V0Z" fill="#D9D9D9"/>
</svg>
